# xmcd
#
# Track frame offsets:
# 150
# 14059
# 30215
# 43752
# 57395
# 72965
# 86229
# 97942
# 112392
# 125462
# 136950
# 150317
# 159409
# 173387
# 188467
# 202365
#
# Disc length: 2908 seconds
#
#
# Revision: 0
# Processed by: cddbd v1.5.2PL0 Copyright (c) Steve Scherf et al.
# Submitted via: FreeRIP 2.951 
#
DISCID=d50b5a10
DTITLE=Peão Brasil e Parentinho - Modão de Viola
DYEAR=1900
DGENRE=Sertanejo
TTITLE0=Peão de OUro
TTITLE1=Linda Uruguaia
TTITLE2=Saudade me Fez Voltar
TTITLE3=Raizes do Amor
TTITLE4=Estrelas de Ouro
TTITLE5=Oi Paixão
TTITLE6=Majestade o Pagode
TTITLE7=Eu a Viola e Ela
TTITLE8=Roupra no Varal
TTITLE9=Andorinha Noturna
TTITLE10=Chão Batido
TTITLE11=Saudade da Saudade
TTITLE12=Homem Sem Fé
TTITLE13=Amor e Paixão
TTITLE14=Amor e Saudade
TTITLE15=Rolinha Cabocla
EXTD=
EXTT0=
EXTT1=
EXTT2=
EXTT3=
EXTT4=
EXTT5=
EXTT6=
EXTT7=
EXTT8=
EXTT9=
EXTT10=
EXTT11=
EXTT12=
EXTT13=
EXTT14=
EXTT15=
PLAYORDER=
